<?xml version="1.0" encoding="UTF-8" standalone="no"?>
<svg
   width="512"
   height="64"
   viewBox="0 0 135.46666 16.933333"
   version="1.1"
   id="svg1007"
   inkscape:version="1.4 (86a8ad7, 2024-10-11)"
   sodipodi:docname="EnvironmentIcon.svg"
   inkscape:export-filename="EnvironmentIcon.png"
   inkscape:export-xdpi="96.000008"
   inkscape:export-ydpi="96.000008"
   xml:space="preserve"
   xmlns:inkscape="http://www.inkscape.org/namespaces/inkscape"
   xmlns:sodipodi="http://sodipodi.sourceforge.net/DTD/sodipodi-0.dtd"
   xmlns="http://www.w3.org/2000/svg"
   xmlns:svg="http://www.w3.org/2000/svg"
   xmlns:rdf="http://www.w3.org/1999/02/22-rdf-syntax-ns#"
   xmlns:cc="http://creativecommons.org/ns#"
   xmlns:dc="http://purl.org/dc/elements/1.1/"><defs
     id="defs1001" /><sodipodi:namedview
     id="base"
     pagecolor="#ffffff"
     bordercolor="#666666"
     borderopacity="1.0"
     inkscape:pageopacity="0.0"
     inkscape:pageshadow="2"
     inkscape:zoom="7.919596"
     inkscape:cx="383.03722"
     inkscape:cy="11.616754"
     inkscape:document-units="px"
     inkscape:current-layer="layer1"
     inkscape:document-rotation="0"
     showgrid="true"
     units="px"
     inkscape:window-width="2560"
     inkscape:window-height="1377"
     inkscape:window-x="-8"
     inkscape:window-y="-8"
     inkscape:window-maximized="1"
     inkscape:showpageshadow="2"
     inkscape:pagecheckerboard="0"
     inkscape:deskcolor="#d1d1d1"><inkscape:grid
       id="grid1"
       units="px"
       originx="0"
       originy="0"
       spacingx="1.0583333"
       spacingy="1.0583333"
       empcolor="#3f3fff"
       empopacity="0.25098039"
       color="#3f3fff"
       opacity="0.1254902"
       empspacing="4"
       enabled="true"
       visible="true" /></sodipodi:namedview><metadata
     id="metadata1004"><rdf:RDF><cc:Work
         rdf:about=""><dc:format>image/svg+xml</dc:format><dc:type
           rdf:resource="http://purl.org/dc/dcmitype/StillImage" /></cc:Work></rdf:RDF></metadata><g
     inkscape:label="レイヤー 1"
     inkscape:groupmode="layer"
     id="layer1"><text
       xml:space="preserve"
       style="font-style:normal;font-weight:normal;font-size:9.14399px;line-height:125%;font-family:sans-serif;letter-spacing:0px;word-spacing:0px;fill:#bf4040;fill-opacity:1;stroke:#020205;stroke-width:0.529167;stroke-linecap:butt;stroke-linejoin:miter;stroke-miterlimit:4;stroke-dasharray:none;stroke-opacity:1"
       x="60.176437"
       y="13.060531"
       id="text2371-2"
       transform="scale(0.85956683,1.1633767)"><tspan
         sodipodi:role="line"
         id="tspan2369-1"
         x="60.176437"
         y="13.060531"
         style="font-style:normal;font-variant:normal;font-weight:normal;font-stretch:normal;font-family:Impact;-inkscape-font-specification:Impact;fill:#bf4040;fill-opacity:1;stroke:#020205;stroke-width:0.529167;stroke-miterlimit:4;stroke-dasharray:none;stroke-opacity:1"><tspan
           style="font-style:normal;font-variant:normal;font-weight:normal;font-stretch:normal;font-size:14.6304px;font-family:Impact;-inkscape-font-specification:Impact;fill:#bf4040;fill-opacity:1;stroke:#020205;stroke-width:0.529167;stroke-miterlimit:4;stroke-dasharray:none;stroke-opacity:1"
           id="tspan2373-6"
           dx="0">C</tspan></tspan></text><rect
       style="fill:#40bfbf;fill-opacity:1;stroke:#000000;stroke-width:0.483061;stroke-linecap:round;stroke-linejoin:round;stroke-miterlimit:4;stroke-dasharray:none;stroke-opacity:1;paint-order:normal;stop-color:#000000"
       id="rect2475"
       width="14.816666"
       height="5.2916665"
       x="68.791664"
       y="8.9797659" /><path
       id="path2063"
       style="fill:#8f552e;fill-opacity:1;fill-rule:evenodd;stroke:#000000;stroke-width:0.529167;stroke-linecap:butt;stroke-linejoin:miter;stroke-miterlimit:4;stroke-dasharray:none;stroke-opacity:1"
       d="M 68.791664,15.874999 H 83.60833 V 13.2131 l -5.291666,-1.058334 -2.116667,-3.1749998 -3.175002,-2.1166666 -3.175,-4.2333323 h -1.058333 z"
       sodipodi:nodetypes="ccccccccc" /><path
       id="path2037"
       style="fill:#ffffff;fill-opacity:1;fill-rule:evenodd;stroke:#000000;stroke-width:0.529167;stroke-linecap:butt;stroke-linejoin:miter;stroke-miterlimit:4;stroke-dasharray:none;stroke-opacity:1"
       d="M 68.791662,2.6297667 V 6.333933 h 2.381249 l 0.79375,-0.7937498 -2.116666,-2.9104165 z" /><path
       id="path2066"
       style="fill:#d9f2f2;fill-opacity:1;stroke:#000000;stroke-width:0.529167;stroke-linecap:butt;stroke-linejoin:bevel;stroke-miterlimit:4;stroke-dasharray:none;stroke-opacity:1;paint-order:normal;stop-color:#000000"
       d="m 8.4666654,1.0583331 c -1.172633,0 -2.116666,0.9440338 -2.116666,2.1166666 v 7.1587353 a 3.1749998,3.1749998 0 0 0 -1.058334,2.366264 3.1749998,3.1749998 0 0 0 3.175,3.175 3.1749998,3.1749998 0 0 0 3.1749996,-3.175 3.1749998,3.1749998 0 0 0 -1.058333,-2.36678 V 3.1749997 c 0,-1.1726328 -0.9440336,-2.1166666 -2.1166666,-2.1166666 z" /><rect
       style="fill:#bf4040;fill-opacity:1;stroke:none;stroke-width:0.529167;stroke-linecap:butt;stroke-linejoin:bevel;stroke-miterlimit:4;stroke-dasharray:none;stroke-opacity:1;paint-order:normal;stop-color:#000000"
       id="rect2079"
       width="2.1166666"
       height="11.641666"
       x="7.4083328"
       y="2.1166666"
       ry="1.0583333" /><circle
       style="fill:#bf4040;fill-opacity:1;stroke:none;stroke-width:0.529167;stroke-linecap:butt;stroke-linejoin:bevel;stroke-miterlimit:4;stroke-dasharray:none;stroke-opacity:1;paint-order:normal;stop-color:#000000"
       id="path2081"
       cx="8.4666672"
       cy="12.699999"
       r="2.1166666" /><path
       style="fill:none;fill-rule:evenodd;stroke:#000000;stroke-width:0.529167;stroke-linecap:butt;stroke-linejoin:miter;stroke-miterlimit:4;stroke-dasharray:none;stroke-opacity:1"
       d="m 6.3499994,5.2916664 h 2.116666"
       id="path2083" /><path
       style="fill:none;fill-rule:evenodd;stroke:#000000;stroke-width:0.529167;stroke-linecap:butt;stroke-linejoin:miter;stroke-miterlimit:4;stroke-dasharray:none;stroke-opacity:1"
       d="m 6.3500004,7.4083334 h 2.116666"
       id="path2083-5" /><path
       style="fill:none;fill-rule:evenodd;stroke:#000000;stroke-width:0.529167;stroke-linecap:butt;stroke-linejoin:miter;stroke-miterlimit:4;stroke-dasharray:none;stroke-opacity:1"
       d="m 6.3500004,9.5249994 h 2.116666"
       id="path2083-1" /><path
       id="path2298"
       style="fill:#d9f2f2;fill-opacity:1;stroke:none;stroke-width:0.529167;stroke-linecap:round;stroke-linejoin:round;stroke-miterlimit:4;stroke-dasharray:none;stroke-opacity:1;paint-order:normal;stop-color:#000000"
       d="M 25.399999,6.3499996 A 12.7,12.7 0 0 0 18.036108,8.7488194 V 14.816667 H 32.852774 V 8.7203973 a 12.7,12.7 0 0 0 -7.38818,-2.3703977 12.7,12.7 0 0 0 -0.0646,0 z" /><path
       id="path2363"
       style="fill:#8f552e;fill-opacity:1;stroke:none;stroke-width:0.529167;stroke-linecap:round;stroke-linejoin:round;stroke-miterlimit:4;stroke-dasharray:none;stroke-opacity:1;paint-order:normal;stop-color:#000000"
       d="m 25.399999,8.4666661 a 10.583333,10.583333 0 0 0 -7.408333,3.0458099 v 3.304191 h 14.816666 v -3.343982 a 10.583333,10.583333 0 0 0 -7.388179,-3.0060189 10.583333,10.583333 0 0 0 -0.02015,0 z" /><path
       id="path2298-1"
       style="fill:#d9f2f2;fill-opacity:1;stroke:#4040bf;stroke-width:0.529167;stroke-linecap:round;stroke-linejoin:round;stroke-miterlimit:4;stroke-dasharray:none;stroke-opacity:1;paint-order:normal;stop-color:#000000"
       d="M 32.852774,8.7203973 C 30.697626,7.1788841 28.114298,6.3500579 25.464595,6.3499996 c -0.02153,-5.48e-5 -0.04307,-5.48e-5 -0.0646,0 h 4e-6 c -2.644517,0.013404 -5.218886,0.8520158 -7.363891,2.3988198"
       sodipodi:nodetypes="ccssc" /><path
       id="path2300-1"
       style="fill:#8f552e;fill-opacity:1;stroke:#40bf40;stroke-width:0.529167;stroke-linecap:round;stroke-linejoin:round;stroke-miterlimit:4;stroke-dasharray:none;stroke-opacity:1;paint-order:normal;stop-color:#000000"
       d="M 32.808332,11.472685 C 30.831893,9.5454724 28.18067,8.4667728 25.420153,8.4666661 h -0.02015 -4e-6 c -2.773116,0.00547 -5.433302,1.0991563 -7.408333,3.0458099"
       sodipodi:nodetypes="cscsc" /><text
       xml:space="preserve"
       style="font-style:normal;font-weight:normal;font-size:10.5833px;line-height:125%;font-family:sans-serif;letter-spacing:0px;word-spacing:0px;fill:#40bfbf;fill-opacity:1;stroke:#020205;stroke-width:0.529167;stroke-linecap:butt;stroke-linejoin:miter;stroke-miterlimit:4;stroke-dasharray:none;stroke-opacity:1"
       x="34.888546"
       y="15.159784"
       id="text2371"><tspan
         sodipodi:role="line"
         id="tspan2369"
         x="34.888546"
         y="15.159784"
         style="font-style:normal;font-variant:normal;font-weight:bold;font-stretch:normal;font-family:Impact;-inkscape-font-specification:'Impact Bold';fill:#40bfbf;fill-opacity:1;stroke:#020205;stroke-width:0.529167;stroke-miterlimit:4;stroke-dasharray:none;stroke-opacity:1"><tspan
   style="font-style:normal;font-variant:normal;font-weight:bold;font-stretch:normal;font-size:16.9333px;font-family:Impact;-inkscape-font-specification:'Impact Bold';fill:#40bfbf;fill-opacity:1;stroke:#020205;stroke-width:0.529167;stroke-miterlimit:4;stroke-dasharray:none;stroke-opacity:1"
   id="tspan2373">O</tspan>2</tspan></text><text
       xml:space="preserve"
       style="font-style:normal;font-weight:normal;font-size:9.14307px;line-height:125%;font-family:sans-serif;letter-spacing:0px;word-spacing:0px;fill:#bf4040;fill-opacity:1;stroke:#020205;stroke-width:0.529167;stroke-linecap:butt;stroke-linejoin:miter;stroke-miterlimit:4;stroke-dasharray:none;stroke-opacity:1"
       x="66.430206"
       y="13.059189"
       id="text2371-2-1"
       transform="scale(0.85947727,1.1634979)"><tspan
         sodipodi:role="line"
         id="tspan2369-1-7"
         x="66.430206"
         y="13.059189"
         style="font-style:normal;font-variant:normal;font-weight:bold;font-stretch:normal;font-family:Impact;-inkscape-font-specification:'Impact Bold';fill:#bf4040;fill-opacity:1;stroke:#020205;stroke-width:0.529167;stroke-miterlimit:4;stroke-dasharray:none;stroke-opacity:1"><tspan
           style="font-style:normal;font-variant:normal;font-weight:bold;font-stretch:normal;font-size:14.6289px;font-family:Impact;-inkscape-font-specification:'Impact Bold';fill:#bf4040;fill-opacity:1;stroke:#020205;stroke-width:0.529167;stroke-miterlimit:4;stroke-dasharray:none;stroke-opacity:1"
           id="tspan2373-6-9">O</tspan><tspan
           id="tspan2405-5"
           style="stroke-width:0.529167;stroke-miterlimit:4;stroke-dasharray:none" /></tspan></text><text
       xml:space="preserve"
       style="font-style:normal;font-weight:normal;font-size:10.5833px;line-height:125%;font-family:sans-serif;letter-spacing:0px;word-spacing:0px;fill:#bf4040;fill-opacity:1;stroke:#020205;stroke-width:0.529167;stroke-linecap:butt;stroke-linejoin:miter;stroke-miterlimit:4;stroke-dasharray:none;stroke-opacity:1"
       x="61.185593"
       y="15.440904"
       id="text2371-2-7"><tspan
         sodipodi:role="line"
         id="tspan2369-1-1"
         x="61.185593"
         y="15.440904"
         style="font-style:normal;font-variant:normal;font-weight:bold;font-stretch:normal;font-family:Impact;-inkscape-font-specification:'Impact Bold';fill:#bf4040;fill-opacity:1;stroke:#020205;stroke-width:0.529167;stroke-miterlimit:4;stroke-dasharray:none;stroke-opacity:1">2</tspan></text><path
       id="rect2511"
       style="fill:#ffffff;fill-opacity:1;stroke:#000000;stroke-width:2;stroke-linecap:butt;stroke-linejoin:round;stroke-miterlimit:4;stroke-dasharray:none;stroke-opacity:1;paint-order:normal;stop-color:#000000"
       d="m 346,10 a 14,14 0 0 0 -14,14 14,14 0 0 0 0.9082,4.962891 C 327.68776,30.993201 324,36.044652 324,42 c 0,7.756 6.244,14 14,14 h 28 c 7.756,0 14,-6.244 14,-14 0,-5.613745 -3.27944,-10.420987 -8.02734,-12.65625 A 7.9999999,7.9999999 0 0 0 364,22 7.9999999,7.9999999 0 0 0 359.9707,23.087891 14,14 0 0 0 346,10 Z"
       transform="scale(0.26458332)" /><path
       id="rect2524"
       style="fill:#000000;fill-opacity:0.2;stroke:none;stroke-width:2;stroke-linecap:butt;stroke-linejoin:round;stroke-miterlimit:4;stroke-dasharray:none;stroke-opacity:1;paint-order:normal;stop-color:#000000"
       d="M 374.24414,29.755859 C 375.35177,31.574433 376,33.706283 376,36 v 4 c 0,6.648 -5.352,12 -12,12 h -28 c -6.648,0 -12,-5.352 -12,-12 v 4 c 0,6.648 5.352,12 12,12 h 32 c 6.648,0 12,-5.352 12,-12 v -4 c 0,-4.354283 -2.30357,-8.141469 -5.75586,-10.244141 z"
       transform="scale(0.26458332)" /><circle
       style="fill:#fd7e00;fill-opacity:1;stroke:#000000;stroke-width:0.529167;stroke-miterlimit:4;stroke-dasharray:none;stroke-opacity:1;paint-order:markers fill stroke;stop-color:#000000"
       id="circle1491"
       cx="106.89166"
       cy="8.4666662"
       r="3.7041664" /><circle
       style="fill:#000000;fill-opacity:1;stroke:none;stroke-width:0.529167;paint-order:markers stroke fill;stop-color:#000000"
       id="circle1495"
       cx="105.30417"
       cy="7.9374995"
       r="0.52916664" /><circle
       style="fill:#000000;fill-opacity:1;stroke:none;stroke-width:0.529167;paint-order:markers stroke fill;stop-color:#000000"
       id="circle1497"
       cx="108.47916"
       cy="7.9374995"
       r="0.52916664" /><path
       id="path1586"
       style="fill:none;fill-opacity:1;stroke:#000000;stroke-width:0.529167;stroke-linecap:round;stroke-linejoin:round;stroke-miterlimit:4;stroke-dasharray:none;stroke-opacity:1;paint-order:markers fill stroke;stop-color:#000000"
       d="m 105.31088,10.583332 c 0.37472,-0.328571 0.96135,-0.5218 1.58414,-0.521802 0.6228,2e-6 1.20942,0.193231 1.58414,0.521802"
       sodipodi:nodetypes="ccc" /><path
       id="circle1491-6"
       style="fill:#fd7e00;fill-opacity:1;stroke:#000000;stroke-width:0.529167;stroke-miterlimit:4;stroke-dasharray:none;stroke-opacity:1;paint-order:markers fill stroke;stop-color:#000000"
       d="m 113.24166,4.7624998 a 3.7041664,3.7041664 0 0 0 -3.175,1.8097086 v 3.7889156 a 3.7041664,3.7041664 0 0 0 3.175,1.809709 3.7041664,3.7041664 0 0 0 3.70417,-3.7041668 3.7041664,3.7041664 0 0 0 -3.70417,-3.7041664 z" /><circle
       style="fill:#000000;fill-opacity:1;stroke:none;stroke-width:0.529167;paint-order:markers stroke fill;stop-color:#000000"
       id="circle1495-1"
       cx="111.65417"
       cy="7.9374995"
       r="0.52916664" /><circle
       style="fill:#000000;fill-opacity:1;stroke:none;stroke-width:0.529167;paint-order:markers stroke fill;stop-color:#000000"
       id="circle1497-4"
       cx="114.82916"
       cy="7.9374995"
       r="0.52916664" /><path
       id="path1586-2"
       style="fill:none;fill-opacity:1;stroke:#000000;stroke-width:0.529167;stroke-linecap:round;stroke-linejoin:round;stroke-miterlimit:4;stroke-dasharray:none;stroke-opacity:1;paint-order:markers fill stroke;stop-color:#000000"
       d="m 111.66088,10.583332 c 0.37472,-0.328571 0.96135,-0.5218 1.58414,-0.521802 0.6228,2e-6 1.20942,0.193231 1.58414,0.521802"
       sodipodi:nodetypes="ccc" /><path
       style="fill:none;fill-rule:evenodd;stroke:#bf4040;stroke-width:1.0583333;stroke-linecap:butt;stroke-linejoin:miter;stroke-dasharray:none;stroke-opacity:1"
       d="m 107.77698,3.9600528 -1.77063,-1.570106 -1.29619,0.7483555 -1.77063,-1.570106"
       id="path1" /><path
       style="fill:none;fill-rule:evenodd;stroke:#bf4040;stroke-width:1.0583333;stroke-linecap:butt;stroke-linejoin:miter;stroke-dasharray:none;stroke-opacity:1"
       d="m 112.46459,3.9600528 1.77063,-1.570106 1.29619,0.7483555 1.77063,-1.570106"
       id="path2" /><path
       style="fill:none;fill-rule:evenodd;stroke:#bf4040;stroke-width:1.0583333;stroke-linecap:butt;stroke-linejoin:miter;stroke-dasharray:none;stroke-opacity:1"
       d="m 107.66874,12.973279 -1.77063,1.570106 -1.29619,-0.748355 -1.77063,1.570106"
       id="path1-5" /><path
       style="fill:none;fill-rule:evenodd;stroke:#bf4040;stroke-width:1.0583333;stroke-linecap:butt;stroke-linejoin:miter;stroke-dasharray:none;stroke-opacity:1"
       d="m 112.35635,12.973279 1.77063,1.570106 1.29619,-0.748355 1.77063,1.570106"
       id="path2-7" /><g
       id="g6"
       transform="rotate(-45,126.73541,7.8279072)"><path
         id="path3"
         style="fill:#ffffff;fill-opacity:1;stroke:#000000;stroke-width:0.529167;stroke-linecap:round;stroke-linejoin:round;stroke-dasharray:none;stroke-opacity:1;paint-order:markers fill stroke"
         d="m 118.53333,6.3499998 a 1.0583313,1.0583333 0 0 0 -1.05833,1.0583333 1.0583313,1.0583333 0 0 0 1.05833,1.0583333 1.058333,1.058333 0 0 0 -1.05833,1.0583333 1.058333,1.058333 0 0 0 1.05833,1.0583333 1.058333,1.058333 0 0 0 1.05833,-1.0583333 H 133.35 a 1.058333,1.058333 0 0 0 1.05833,1.0583333 1.058333,1.058333 0 0 0 1.05833,-1.0583333 1.058333,1.058333 0 0 0 -1.05833,-1.0583333 1.0583313,1.0583333 0 0 0 1.05833,-1.0583333 1.0583313,1.0583333 0 0 0 -1.05833,-1.0583333 1.0583313,1.0583333 0 0 0 -1.05833,1.0583333 h -13.75834 a 1.0583313,1.0583333 0 0 0 -1.05833,-1.0583333 z" /><path
         id="path4-8"
         style="fill:#8f552e;fill-opacity:1;stroke:#000000;stroke-width:0.529167;stroke-linecap:round;stroke-linejoin:round;stroke-dasharray:none;stroke-opacity:1;paint-order:markers fill stroke"
         d="m 123.05708,4.2333332 c -1.59288,3.004e-4 -2.88406,1.8955403 -2.88406,4.2333332 0,2.3377926 1.29118,4.2330336 2.88406,4.2333336 2.29253,-0.44708 4.55166,-0.419119 6.82749,0 1.59289,-2.92e-4 2.88407,-1.895535 2.88407,-4.2333336 0,-2.3377986 -1.29118,-4.2330409 -2.88407,-4.2333332 -2.62861,0.6904463 -4.90444,0.6904463 -6.82749,0 z"
         sodipodi:nodetypes="csccscc" /><ellipse
         style="fill:#bf4040;fill-opacity:1;stroke:#000000;stroke-width:0.529167;stroke-linecap:round;stroke-linejoin:round;stroke-dasharray:none;stroke-opacity:1;paint-order:markers fill stroke"
         id="path4"
         cx="123.05723"
         cy="8.4666653"
         rx="2.8844306"
         ry="4.2333326" /><path
         id="use5"
         style="fill:#ffffff;fill-opacity:1;stroke:#000000;stroke-width:0.529167;stroke-linecap:round;stroke-linejoin:round;stroke-dasharray:none;stroke-opacity:1;paint-order:markers fill stroke"
         d="m 118.53333,6.3499998 a 1.0583313,1.0583333 0 0 0 -1.05833,1.0583333 1.0583313,1.0583333 0 0 0 1.05833,1.0583333 1.058333,1.058333 0 0 0 -1.05833,1.0583333 1.058333,1.058333 0 0 0 1.05833,1.0583333 1.058333,1.058333 0 0 0 1.05833,-1.0583333 h 3.175 v -0.00362 a 0.43112907,1.0583332 0 0 0 0.0222,0.00362 0.43112907,1.0583332 0 0 0 0.4315,-1.0583333 0.43112907,1.0583332 0 0 0 -0.4315,-1.0583333 0.43112907,1.0583332 0 0 0 -0.0222,0.00362 v -0.00362 h -3.175 a 1.0583313,1.0583333 0 0 0 -1.05833,-1.0583333 z" /></g></g></svg>
